<svg width="24" height="24" viewBox="0 0 24 24" fill="none" xmlns="http://www.w3.org/2000/svg">
<path fill-rule="evenodd" clip-rule="evenodd" d="M16.0394 2.02494C16.7063 2.3964 17.3135 3.25136 16.9461 4.32408L16.943 4.3332L16.9429 4.33319L15.1004 9.54838H17.1393C18.0555 9.54838 18.6868 10.1726 18.9058 10.8534C19.1239 11.5317 18.978 12.3915 18.2768 12.9446C18.2767 12.9446 18.2767 12.9447 18.2767 12.9447L7.00215 21.8387L7.00214 21.8387C6.20676 22.4661 5.24381 22.2953 4.65233 21.7763C4.06852 21.2641 3.77338 20.3599 4.20379 19.4867L5.09963 19.9282L5.10019 19.9285M5.09963 19.9282L4.2038 19.4867L6.73633 14.3487H5.91977C4.55805 14.3487 3.74297 12.9632 4.18086 11.7816L4.25933 11.5699L4.42115 11.4125L13.7615 2.32355C14.4339 1.53142 15.4871 1.71732 16.0394 2.02494M14.9568 3.9511L6.32686 12.3487H8.34411H9.95189L9.24107 13.7908L6.22937 19.9009L16.8175 11.5484H13.6866H12.2727L12.7437 10.2153L14.9568 3.9511Z" fill="black"/>
</svg>
