<svg width="24" height="24" viewBox="0 0 24 24" fill="none" xmlns="http://www.w3.org/2000/svg">
<path fill-rule="evenodd" clip-rule="evenodd" d="M12.0002 4.27344L20.7817 9.00193L12.0002 13.7304L7.49114 11.3024L11.7985 9.95641C12.3256 9.79167 12.6194 9.2308 12.4547 8.70365C12.2899 8.17651 11.7291 7.88271 11.2019 8.04745L5.02877 9.97655L3.21875 9.00193L12.0002 4.27344ZM6.00024 12.7712L4.8218 12.1366L4.50019 12.2371V14.3839C4.80707 14.6585 5.00019 15.0577 5.00019 15.5019C5.00019 15.9462 4.80707 16.3453 4.50019 16.62V17.0019C4.50019 17.5542 4.05248 18.0019 3.50019 18.0019C2.94791 18.0019 2.50019 17.5542 2.50019 17.0019V16.62C2.19332 16.3453 2.00019 15.9462 2.00019 15.5019C2.00019 15.0577 2.19332 14.6585 2.50019 14.3839V11.5019V10.8865L2.27055 10.7629C0.868149 10.0077 0.868151 7.99612 2.27055 7.24098L11.052 2.5125C11.644 2.19375 12.3565 2.19375 12.9484 2.5125L21.7299 7.24099C23.1323 7.99612 23.1323 10.0077 21.7299 10.7629L18.0002 12.7711V17.5606C18.0002 18.1552 17.6448 18.6922 17.0974 18.9246C13.84 20.3073 10.1605 20.3073 6.90304 18.9246C6.35569 18.6922 6.00024 18.1552 6.00024 17.5606V12.7712ZM8.00024 13.8481V17.2119C10.5729 18.2116 13.4276 18.2116 16.0002 17.2119V13.8481L12.9484 15.4914C12.3565 15.8101 11.644 15.8101 11.052 15.4914L8.00024 13.8481Z" fill="black"/>
</svg>
